<svg width="100" height="100" xmlns="http://www.w3.org/2000/svg">
 <title>Icon</title>

 <g>
  <title>Layer 1</title>
  <path id="svg_1" d="m15.8231,38.22353l25.32202,0l7.8247,-24.05578l7.8247,24.05578l25.32201,0l-20.4859,14.86712l7.8251,24.05578l-20.48591,-14.86753l-20.48591,14.86753l7.82511,-24.05578l-20.48591,-14.86712z" stroke="#000000" fill="#FFB27C"/>
  <path id="svg_7" d="m20.07842,44.81927l25.32202,0l7.8247,-24.05578l7.8247,24.05578l25.32201,0l-20.4859,14.86712l7.8251,24.05578l-20.48591,-14.86753l-20.48591,14.86753l7.82511,-24.05578l-20.48591,-14.86712z" stroke="#000000" fill="#B8874D"/>
  <path id="svg_8" d="m25.39757,50.35118l25.32202,0l7.8247,-24.05578l7.8247,24.05578l25.32201,0l-20.4859,14.86712l7.8251,24.05578l-20.48591,-14.86753l-20.48591,14.86753l7.82511,-24.05578l-20.48591,-14.86712z" stroke="#000000" fill="#97944B"/>
  <path id="svg_9" d="m29.01459,56.09586l25.32202,0l7.8247,-24.05578l7.8247,24.05578l25.32201,0l-20.4859,14.86712l7.8251,24.05578l-20.48591,-14.86753l-20.48591,14.86753l7.82511,-24.05578l-20.48591,-14.86712z" stroke="#000000" fill="#B8D078"/>
  <path id="svg_10" d="m32.41884,60.56394l25.32202,0l7.8247,-24.05578l7.8247,24.05578l25.32201,0l-20.4859,14.86712l7.8251,24.05578l-20.48591,-14.86753l-20.48591,14.86753l7.82511,-24.05578l-20.48591,-14.86712z" stroke="#000000" fill="#729C62"/>
  <path id="svg_11" d="m35.39756,66.30862l25.32202,0l7.8247,-24.05578l7.8247,24.05578l25.32201,0l-20.4859,14.86712l7.8251,24.05578l-20.48591,-14.86753l-20.48591,14.86753l7.82511,-24.05578l-20.48591,-14.86712z" stroke="#000000" fill="#619E73"/>
  <path id="svg_12" d="m38.80182,72.26607l25.32202,0l7.8247,-24.05578l7.8247,24.05578l25.32201,0l-20.4859,14.86712l7.8251,24.05578l-20.48591,-14.86753l-20.48591,14.86753l7.82511,-24.05578l-20.48591,-14.86712z" stroke="#000000" fill="#559E84"/>
  <path id="svg_13" d="m42.20607,77.58521l25.32202,0l7.8247,-24.05578l7.8247,24.05578l25.32201,0l-20.4859,14.86712l7.8251,24.05578l-20.48591,-14.86753l-20.48591,14.86753l7.82511,-24.05578l-20.48591,-14.86712z" stroke="#000000" fill="#5B9BA2"/>
  <path id="svg_14" d="m44.97203,82.90436l25.32202,0l7.8247,-24.05578l7.8247,24.05578l25.32201,0l-20.4859,14.86712l7.8251,24.05578l-20.48591,-14.86753l-20.48591,14.86753l7.82511,-24.05578l-20.48591,-14.86712z" stroke="#000000" fill="#6D97AB"/>
  <path id="svg_15" d="m49.65287,89.28734l25.32202,0l7.8247,-24.05578l7.8247,24.05578l25.32201,0l-20.4859,14.86712l7.8251,24.05578l-20.48591,-14.86753l-20.48591,14.86753l7.82511,-24.05578l-20.48591,-14.86712z" stroke="#000000" fill="#9A8AAB"/>
  <path id="svg_16" d="m53.26989,94.60648l25.32202,0l7.8247,-24.05578l7.8247,24.05578l25.32201,0l-20.4859,14.86712l7.8251,24.05578l-20.48591,-14.86753l-20.48591,14.86753l7.82511,-24.05578l-20.48591,-14.86712z" stroke="#000000" fill="#74556D"/>
  <path id="svg_17" d="m56.03585,99.92563l25.32202,0l7.8247,-24.05578l7.8247,24.05578l25.32201,0l-20.4859,14.86712l7.8251,24.05578l-20.48591,-14.86753l-20.48591,14.86753l7.82511,-24.05578l-20.48591,-14.86712z" stroke="#000000" fill="#AF84A3"/>
  <path id="svg_18" d="m59.22734,105.45754l25.32202,0l7.8247,-24.05578l7.8247,24.05578l25.32201,0l-20.4859,14.86712l7.8251,24.05578l-20.48591,-14.86753l-20.48591,14.86753l7.82511,-24.05578l-20.48591,-14.86712z" stroke="#000000" fill="#C97A86"/>
  <path id="svg_19" d="m61.78053,109.28733l25.32202,0l7.8247,-24.05578l7.8247,24.05578l25.32201,0l-20.4859,14.86712l7.8251,24.05578l-20.48591,-14.86753l-20.48591,14.86753l7.82511,-24.05578l-20.48591,-14.86712z" stroke="#000000" fill="#8B4D4B"/>
  <path id="svg_20" d="m65.18478,114.60647l25.32202,0l7.8247,-24.05578l7.8247,24.05578l25.32201,0l-20.4859,14.86712l7.8251,24.05578l-20.48591,-14.86753l-20.48591,14.86753l7.82511,-24.05578l-20.48591,-14.86712z" stroke="#000000" fill="#CC7C65"/>
 </g>
</svg>